<?xml version="1.0" encoding="iso-8859-1"?>
<!-- Generator: Adobe Illustrator 16.0.0, SVG Export Plug-In . SVG Version: 6.00 Build 0)  -->
<!DOCTYPE svg PUBLIC "-//W3C//DTD SVG 1.1//EN" "http://www.w3.org/Graphics/SVG/1.1/DTD/svg11.dtd">
<svg version="1.1" id="Capa_1" xmlns="http://www.w3.org/2000/svg" xmlns:xlink="http://www.w3.org/1999/xlink" x="0px" y="0px"
	 width="50px" height="50px" viewBox="0 0 50 50" style="enable-background:new 0 0 50 50;" xml:space="preserve">
<g>
	<path d="M47.374,46.125c-4.482-1.975-7.068-3.614-11.768-5.162c-0.351-0.115-0.77-0.34-0.909-0.611
		c-0.382-0.725-0.65-1.496-0.922-2.262c-0.173-0.486-0.326-0.945-0.95-1.18c-0.167-0.062-0.32-0.344-0.316-0.524
		c0.032-1.772-0.598-3.061,0.18-3.757c1.417-1.273,1.095-2.834,1.804-3.607c0.708-0.772,2.462-6.253,2.126-6.958
		c-0.336-0.702-1.521-0.373-1.245-0.714c1.09-1.344,1.426-4.059,1.37-6.285c0.194,0.403,0.301,0.841,0.301,1.32v0.461l6.937-4.508
		L25,0L6.021,12.336l1.715,1.114v2.496c-0.329,0.084-0.578,0.368-0.578,0.723c0,0.275,0.156,0.509,0.379,0.642L6.02,25.955h3.799
		L8.3,17.311c0.222-0.132,0.377-0.366,0.377-0.642c0-0.355-0.249-0.639-0.577-0.723v-2.258l4.856,3.156v-0.303
		c0.036,0.451,0.102,0.916,0.212,1.399c0.375,1.644,1.098,1.542,1.684,3.406c0.009,0.028,0.001,0.065,0.001,0.098v0.1
		c-0.046,0.212-0.216,0.451-0.359,0.49c-0.697,0.193-0.714,0.577-0.62,1.074c0.065,0.342,0.598,2.884,0.906,3.794
		c0.232,0.677,0.681,1.315,0.805,2.005c0.25,1.376,0.842,2.573,1.923,3.61c0.179,0.174,0.313,0.461,0.293,0.686
		c-0.084,1.061-0.209,2.12-0.376,3.171c-0.033,0.208-0.286,0.511-0.491,0.549c-0.819,0.147-0.946,0.688-1.141,1.237
		c-0.259,0.723-0.535,1.445-0.86,2.145c-0.103,0.219-0.356,0.445-0.606,0.541c-1.457,0.547-2.94,1.047-4.408,1.575
		c-1.561,0.567-5.697,3.103-7.233,3.81c-0.903,0.418-0.4,3.77-0.4,3.77c17.865,0,27.484,0,45.347,0
		C47.633,50,48.27,46.521,47.374,46.125z"/>
</g>
<g>
</g>
<g>
</g>
<g>
</g>
<g>
</g>
<g>
</g>
<g>
</g>
<g>
</g>
<g>
</g>
<g>
</g>
<g>
</g>
<g>
</g>
<g>
</g>
<g>
</g>
<g>
</g>
<g>
</g>
</svg>
