<svg xmlns="http://www.w3.org/2000/svg" viewBox="0 0 90 90"><defs><style>.cls-1,.cls-3,.cls-4{fill:none;}.cls-1,.cls-2,.cls-4{stroke:#13bef9;}.cls-1,.cls-2{stroke-miterlimit:10;}.cls-1,.cls-2,.cls-3,.cls-4{stroke-width:2px;}.cls-2{fill:#fff;}.cls-3{stroke:#e86a25;}.cls-3,.cls-4{stroke-linecap:round;stroke-linejoin:round;}.cls-4{stroke-dasharray:2.36 3.54 2.36 3.54 2.36 3.54;}</style></defs><g id="Layer_2" data-name="Layer 2"><polygon class="cls-1" points="45.34 18.22 16.81 38.95 27.71 72.49 62.97 72.49 73.87 38.95 45.34 18.22"/><circle class="cls-2" cx="45.34" cy="18.22" r="4.51"/><circle class="cls-2" cx="73.87" cy="39.31" r="4.51"/><circle class="cls-2" cx="17.73" cy="39.31" r="4.51"/><circle class="cls-2" cx="62.89" cy="72.49" r="4.51"/><circle class="cls-2" cx="28.04" cy="72.49" r="4.51"/><path class="cls-3" d="M58.79,45.81a4.91,4.91,0,0,0,.06-.67A4.13,4.13,0,0,0,54.72,41a4,4,0,0,0-1.77.4,6.43,6.43,0,0,0-12.2.76A4.75,4.75,0,0,0,34,46.49,3.85,3.85,0,0,0,34,47a5.29,5.29,0,0,0-.9-.08,4.77,4.77,0,1,0,0,9.53H56.86a5.48,5.48,0,0,0,1.93-10.61Z"/><line class="cls-4" x1="59.58" y1="67.09" x2="54.74" y2="59.06"/><line class="cls-4" x1="45.34" y1="33.5" x2="45.34" y2="25.47"/><line class="cls-4" x1="32.26" y1="43.02" x2="24.41" y2="41.35"/><line class="cls-4" x1="68.33" y1="41.92" x2="60.61" y2="44.13"/><line class="cls-4" x1="36.54" y1="59.06" x2="31.7" y2="67.09"/></g></svg>