<?xml version="1.0" encoding="utf-8"?>
<!-- Generator: Adobe Illustrator 19.2.1, SVG Export Plug-In . SVG Version: 6.00 Build 0)  -->
<svg version="1.1" id="Layer_1" xmlns="http://www.w3.org/2000/svg" xmlns:xlink="http://www.w3.org/1999/xlink" x="0px" y="0px"
	 viewBox="0 0 41 42.3" style="enable-background:new 0 0 41 42.3;" xml:space="preserve">
<style type="text/css">
	.Drop_x0020_Shadow{fill:none;}
	.Round_x0020_Corners_x0020_2_x0020_pt{fill:#FFFFFF;stroke:#231F20;stroke-miterlimit:10;}
	.Live_x0020_Reflect_x0020_X{fill:none;}
	.Bevel_x0020_Soft{fill:url(#SVGID_1_);}
	.Dusk{fill:#FFFFFF;}
	.Foliage_GS{fill:#FFDD00;}
	.Pompadour_GS{fill-rule:evenodd;clip-rule:evenodd;fill:#44ADE2;}
	.st0{display:none;}
	.st1{display:inline;fill:#5CB460;}
	.st2{fill:#5CB460;}
</style>
<linearGradient id="SVGID_1_" gradientUnits="userSpaceOnUse" x1="0" y1="-17.6667" x2="0.7071" y2="-16.9596">
	<stop  offset="0" style="stop-color:#DEDFE3"/>
	<stop  offset="0.1783" style="stop-color:#DADBDF"/>
	<stop  offset="0.3611" style="stop-color:#CECFD3"/>
	<stop  offset="0.546" style="stop-color:#B9BCBF"/>
	<stop  offset="0.7324" style="stop-color:#9CA0A2"/>
	<stop  offset="0.9181" style="stop-color:#787D7E"/>
	<stop  offset="1" style="stop-color:#656B6C"/>
</linearGradient>
<g class="st0">
	<path class="st1" d="M3,27.9c-0.6,0-1.1,0.6-1,1.2c0.1,0.5,0.5,0.8,1,0.8h3.7v4.4c0,0.7,0.6,1.3,1.3,1.3h4.4v3.7
		c0,0.5,0.3,0.9,0.8,1c0.6,0.1,1.2-0.4,1.2-1v-3.7h2.8v3.7c0,0.5,0.3,0.9,0.8,1c0.6,0.1,1.2-0.4,1.2-1v-3.7h2.8v3.7
		c0,0.5,0.3,0.9,0.8,1c0.6,0.1,1.2-0.4,1.2-1v-3.7h2.8v3.7c0,0.5,0.3,0.9,0.8,1c0.6,0.1,1.2-0.4,1.2-1v-3.7h4.4
		c0.7,0,1.3-0.6,1.3-1.3v-4.4h3.7c0.5,0,0.9-0.3,1-0.8c0.1-0.6-0.4-1.2-1-1.2h-3.7v-2.8h3.7c0.5,0,0.9-0.3,1-0.8
		c0.1-0.6-0.4-1.2-1-1.2h-3.7v-2.8h3.7c0.5,0,0.9-0.3,1-0.8c0.1-0.6-0.4-1.2-1-1.2h-3.7v-2.8l3.7,0c0.5,0,0.9-0.3,1-0.8
		c0.1-0.6-0.4-1.2-1-1.2h-3.7V9.1c0-0.7-0.6-1.3-1.3-1.3h-4.4V4c0-0.5-0.3-0.9-0.8-1c-0.6-0.1-1.2,0.4-1.2,1v3.7h-2.8l0-3.7
		c0-0.5-0.3-0.9-0.8-1c-0.6-0.1-1.2,0.4-1.2,1v3.7h-2.8V4c0-0.6-0.6-1.1-1.2-1c-0.5,0.1-0.8,0.5-0.8,1v3.7h-2.8l0-3.7
		c0-0.5-0.3-0.9-0.8-1c-0.6-0.1-1.2,0.4-1.2,1v3.7H8.1c-0.7,0-1.3,0.6-1.3,1.3v4.4H3c-0.5,0-0.9,0.3-1,0.8c-0.1,0.6,0.4,1.2,1,1.2
		h3.7v2.8l-3.7,0c-0.5,0-0.9,0.3-1,0.8c-0.1,0.6,0.4,1.2,1,1.2h3.7v2.8H3c-0.5,0-0.9,0.3-1,0.8c-0.1,0.6,0.4,1.2,1,1.2h3.7v2.8H3z
		 M24.4,11.4c0-0.5,0.4-0.9,0.9-0.9h5.7c0.5,0,0.9,0.4,0.9,0.9v5.7c0,0.5-0.4,0.9-0.9,0.9h-0.2c-0.5,0-0.9-0.4-0.9-0.9v-4.6h-4.6
		c-0.5,0-0.9-0.4-0.9-0.9V11.4z M24.4,31.7c0-0.5,0.4-0.9,0.9-0.9h4.6v-4.6c0-0.5,0.4-0.9,0.9-0.9h0.2c0.5,0,0.9,0.4,0.9,0.9v5.7
		c0,0.5-0.4,0.9-0.9,0.9h-5.7c-0.5,0-0.9-0.4-0.9-0.9V31.7z M9.6,11.4c0-0.5,0.4-0.9,0.9-0.9h5.7c0.5,0,0.9,0.4,0.9,0.9v0.2
		c0,0.5-0.4,0.9-0.9,0.9h-4.6v4.6c0,0.5-0.4,0.9-0.9,0.9h-0.2c-0.5,0-0.9-0.4-0.9-0.9V11.4z M9.6,26.2c0-0.5,0.4-0.9,0.9-0.9h0.2
		c0.5,0,0.9,0.4,0.9,0.9v4.6h4.6c0.5,0,0.9,0.4,0.9,0.9v0.2c0,0.5-0.4,0.9-0.9,0.9h-5.7c-0.5,0-0.9-0.4-0.9-0.9L9.6,26.2z M9.6,26.2
		"/>
</g>
<g>
	<path class="st2" d="M28.4,6.8c0.3,0,0.6-0.3,0.6-0.6V2.9c0-0.3-0.3-0.6-0.6-0.6c-0.3,0-0.6,0.3-0.6,0.6v3.4
		C27.9,6.6,28.1,6.8,28.4,6.8L28.4,6.8z M28.4,6.8"/>
	<path class="st2" d="M25.4,6.8c0.3,0,0.6-0.3,0.6-0.6V2.9c0-0.3-0.3-0.6-0.6-0.6c-0.3,0-0.6,0.3-0.6,0.6v3.4
		C24.8,6.6,25.1,6.8,25.4,6.8L25.4,6.8z M25.4,6.8"/>
	<path class="st2" d="M22.3,6.8c0.3,0,0.6-0.3,0.6-0.6V2.9c0-0.3-0.3-0.6-0.6-0.6c-0.3,0-0.6,0.3-0.6,0.6v3.4
		C21.7,6.6,21.9,6.8,22.3,6.8L22.3,6.8z M22.3,6.8"/>
	<path class="st2" d="M19.2,6.8c0.3,0,0.6-0.3,0.6-0.6V2.9c0-0.3-0.3-0.6-0.6-0.6c-0.3,0-0.6,0.3-0.6,0.6v3.4
		C18.6,6.6,18.9,6.8,19.2,6.8L19.2,6.8z M19.2,6.8"/>
	<path class="st2" d="M16.4,6.8c0.3,0,0.6-0.3,0.6-0.6V2.9c0-0.3-0.3-0.6-0.6-0.6c-0.3,0-0.6,0.3-0.6,0.6v3.4
		C15.8,6.6,16.1,6.8,16.4,6.8L16.4,6.8z M16.4,6.8"/>
	<path class="st2" d="M13.3,6.8c0.3,0,0.6-0.3,0.6-0.6V2.9c0-0.3-0.3-0.6-0.6-0.6c-0.3,0-0.6,0.3-0.6,0.6v3.4
		C12.8,6.6,13,6.8,13.3,6.8L13.3,6.8z M13.3,6.8"/>
	<path class="st2" d="M5.6,12.6H2.2c-0.3,0-0.6,0.3-0.6,0.6s0.3,0.6,0.6,0.6h3.4c0.3,0,0.6-0.3,0.6-0.6S5.9,12.6,5.6,12.6L5.6,12.6z
		 M5.6,12.6"/>
	<path class="st2" d="M5.6,15.7H2.2c-0.3,0-0.6,0.2-0.6,0.6c0,0.3,0.3,0.6,0.6,0.6h3.4c0.3,0,0.6-0.2,0.6-0.6
		C6.2,15.9,5.9,15.7,5.6,15.7L5.6,15.7z M5.6,15.7"/>
	<path class="st2" d="M5.6,18.8H2.2c-0.3,0-0.6,0.2-0.6,0.6c0,0.3,0.3,0.6,0.6,0.6h3.4c0.3,0,0.6-0.3,0.6-0.6
		C6.2,19,5.9,18.8,5.6,18.8L5.6,18.8z M5.6,18.8"/>
	<path class="st2" d="M5.6,21.9H2.2c-0.3,0-0.6,0.3-0.6,0.6c0,0.3,0.3,0.6,0.6,0.6h3.4c0.3,0,0.6-0.3,0.6-0.6
		C6.2,22.1,5.9,21.9,5.6,21.9L5.6,21.9z M5.6,21.9"/>
	<path class="st2" d="M5.6,24.7H2.2c-0.3,0-0.6,0.3-0.6,0.6c0,0.3,0.3,0.6,0.6,0.6h3.4c0.3,0,0.6-0.3,0.6-0.6
		C6.2,24.9,5.9,24.7,5.6,24.7L5.6,24.7z M5.6,24.7"/>
	<path class="st2" d="M5.6,27.7H2.2c-0.3,0-0.6,0.3-0.6,0.6c0,0.3,0.3,0.6,0.6,0.6h3.4c0.3,0,0.6-0.3,0.6-0.6
		C6.2,28,5.9,27.7,5.6,27.7L5.6,27.7z M5.6,27.7"/>
	<path class="st2" d="M28.4,35.5c-0.3,0-0.6,0.3-0.6,0.6v3.4c0,0.3,0.3,0.6,0.6,0.6c0.3,0,0.6-0.2,0.6-0.6v-3.4
		C29,35.8,28.7,35.5,28.4,35.5L28.4,35.5z M28.4,35.5"/>
	<path class="st2" d="M25.4,35.5c-0.3,0-0.6,0.3-0.6,0.6v3.4c0,0.3,0.3,0.6,0.6,0.6c0.3,0,0.6-0.2,0.6-0.6v-3.4
		C25.9,35.8,25.7,35.5,25.4,35.5L25.4,35.5z M25.4,35.5"/>
	<path class="st2" d="M22.3,35.5c-0.3,0-0.6,0.3-0.6,0.6v3.4c0,0.3,0.3,0.6,0.6,0.6c0.3,0,0.6-0.2,0.6-0.6v-3.4
		C22.8,35.8,22.6,35.5,22.3,35.5L22.3,35.5z M22.3,35.5"/>
	<path class="st2" d="M19.2,35.5c-0.3,0-0.6,0.3-0.6,0.6v3.4c0,0.3,0.2,0.6,0.6,0.6c0.3,0,0.6-0.2,0.6-0.6v-3.4
		C19.8,35.8,19.5,35.5,19.2,35.5L19.2,35.5z M19.2,35.5"/>
	<path class="st2" d="M16.4,35.5c-0.3,0-0.6,0.3-0.6,0.6v3.4c0,0.3,0.3,0.6,0.6,0.6c0.3,0,0.6-0.2,0.6-0.6v-3.4
		C16.9,35.8,16.7,35.5,16.4,35.5L16.4,35.5z M16.4,35.5"/>
	<path class="st2" d="M13.3,35.5c-0.3,0-0.6,0.3-0.6,0.6v3.4c0,0.3,0.3,0.6,0.6,0.6c0.3,0,0.6-0.2,0.6-0.6v-3.4
		C13.9,35.8,13.6,35.5,13.3,35.5L13.3,35.5z M13.3,35.5"/>
	<path class="st2" d="M30,8.3H11.8c-1.9,0-3.5,1.6-3.5,3.5V30c0,1.9,1.6,3.5,3.5,3.5H30c1.9,0,3.5-1.6,3.5-3.5V11.8
		C33.5,9.9,31.9,8.3,30,8.3L30,8.3z M13.5,13.8c-0.6,0-1.1-0.5-1.1-1.1c0-0.6,0.5-1.1,1.1-1.1c0.6,0,1.1,0.5,1.1,1.1
		C14.6,13.3,14.1,13.8,13.5,13.8L13.5,13.8z M26.7,26.4H15.1V14.7h11.6V26.4z M26.7,26.4"/>
	<path class="st2" d="M35.4,13.7h3.4c0.3,0,0.6-0.3,0.6-0.6s-0.3-0.6-0.6-0.6h-3.4c-0.3,0-0.6,0.3-0.6,0.6S35.1,13.7,35.4,13.7
		L35.4,13.7z M35.4,13.7"/>
	<path class="st2" d="M38.8,15.7h-3.4c-0.3,0-0.6,0.2-0.6,0.6c0,0.3,0.3,0.6,0.6,0.6h3.4c0.3,0,0.6-0.2,0.6-0.6
		C39.3,15.9,39.1,15.7,38.8,15.7L38.8,15.7z M38.8,15.7"/>
	<path class="st2" d="M38.8,18.8h-3.4c-0.3,0-0.6,0.2-0.6,0.6c0,0.3,0.3,0.6,0.6,0.6h3.4c0.3,0,0.6-0.3,0.6-0.6
		C39.3,19,39.1,18.8,38.8,18.8L38.8,18.8z M38.8,18.8"/>
	<path class="st2" d="M38.8,21.9h-3.4c-0.3,0-0.6,0.3-0.6,0.6c0,0.3,0.3,0.6,0.6,0.6h3.4c0.3,0,0.6-0.3,0.6-0.6
		C39.3,22.1,39.1,21.9,38.8,21.9L38.8,21.9z M38.8,21.9"/>
	<path class="st2" d="M38.8,24.7h-3.4c-0.3,0-0.6,0.3-0.6,0.6c0,0.3,0.3,0.6,0.6,0.6h3.4c0.3,0,0.6-0.3,0.6-0.6
		C39.3,24.9,39.1,24.7,38.8,24.7L38.8,24.7z M38.8,24.7"/>
	<path class="st2" d="M38.8,27.7h-3.4c-0.3,0-0.6,0.3-0.6,0.6c0,0.3,0.3,0.6,0.6,0.6h3.4c0.3,0,0.6-0.3,0.6-0.6
		C39.3,28,39.1,27.7,38.8,27.7L38.8,27.7z M38.8,27.7"/>
</g>
<g>
</g>
<g>
</g>
<g>
</g>
<g>
</g>
<g>
</g>
<g>
</g>
</svg>
