<?xml version="1.0" encoding="utf-8"?>
<!-- Generator: Adobe Illustrator 25.1.0, SVG Export Plug-In . SVG Version: 6.00 Build 0)  -->
<!DOCTYPE svg PUBLIC "-//W3C//DTD SVG 1.1//EN" "http://www.w3.org/Graphics/SVG/1.1/DTD/svg11.dtd" [
	<!ENTITY st0 "display:none;">
	<!ENTITY st1 "display:inline;">
	<!ENTITY st2 "fill:#FFFFFF;stroke:#EC008C;stroke-width:0.1;stroke-miterlimit:10;">
	<!ENTITY st3 "fill:#0091DA;">
	<!ENTITY st4 "fill:#1D428A;">
]>
<svg version="1.1" xmlns="http://www.w3.org/2000/svg" xmlns:xlink="http://www.w3.org/1999/xlink" x="0px" y="0px"
	 viewBox="0 0 120 120" style="enable-background:new 0 0 120 120;" xml:space="preserve">
<title>Cloud Network</title>
<metadata><?xpacket begin="﻿" id="W5M0MpCehiHzreSzNTczkc9d"?>
<x:xmpmeta xmlns:x="adobe:ns:meta/" x:xmptk="Adobe XMP Core 6.0-c002 79.164488, 2020/07/10-22:06:53        ">
   <rdf:RDF xmlns:rdf="http://www.w3.org/1999/02/22-rdf-syntax-ns#">
      <rdf:Description rdf:about=""
            xmlns:xmp="http://ns.adobe.com/xap/1.0/"
            xmlns:xmpMM="http://ns.adobe.com/xap/1.0/mm/"
            xmlns:stEvt="http://ns.adobe.com/xap/1.0/sType/ResourceEvent#"
            xmlns:dc="http://purl.org/dc/elements/1.1/"
            xmlns:lr="http://ns.adobe.com/lightroom/1.0/">
         <xmp:MetadataDate>2021-01-27T15:54:04-06:00</xmp:MetadataDate>
         <xmpMM:InstanceID>xmp.iid:2ae5b3d9-0c76-4f0c-a663-1932647a9fea</xmpMM:InstanceID>
         <xmpMM:DocumentID>xmp.did:d3dab39d-12bf-4f05-9a56-a83bf32d539f</xmpMM:DocumentID>
         <xmpMM:OriginalDocumentID>xmp.did:d3dab39d-12bf-4f05-9a56-a83bf32d539f</xmpMM:OriginalDocumentID>
         <xmpMM:History>
            <rdf:Seq>
               <rdf:li>
                  <rdf:Description>
                     <stEvt:action>saved</stEvt:action>
                     <stEvt:instanceID>xmp.iid:d3dab39d-12bf-4f05-9a56-a83bf32d539f</stEvt:instanceID>
                     <stEvt:when>2021-01-27T14:49:20-06:00</stEvt:when>
                     <stEvt:softwareAgent>Adobe Bridge 2021 (Macintosh)</stEvt:softwareAgent>
                     <stEvt:changed>/metadata</stEvt:changed>
                  </rdf:Description>
               </rdf:li>
               <rdf:li>
                  <rdf:Description>
                     <stEvt:action>saved</stEvt:action>
                     <stEvt:instanceID>xmp.iid:2ae5b3d9-0c76-4f0c-a663-1932647a9fea</stEvt:instanceID>
                     <stEvt:when>2021-01-27T15:54:04-06:00</stEvt:when>
                     <stEvt:softwareAgent>Adobe Bridge 2021 (Macintosh)</stEvt:softwareAgent>
                     <stEvt:changed>/metadata</stEvt:changed>
                  </rdf:Description>
               </rdf:li>
            </rdf:Seq>
         </xmpMM:History>
         <dc:subject>
            <rdf:Bag>
               <rdf:li>Icon</rdf:li>
               <rdf:li>2-Color</rdf:li>
               <rdf:li>Light Background</rdf:li>
               <rdf:li>Cloud</rdf:li>
               <rdf:li>Network</rdf:li>
               <rdf:li>Clouds</rdf:li>
            </rdf:Bag>
         </dc:subject>
         <dc:title>
            <rdf:Alt>
               <rdf:li xml:lang="x-default">Cloud Network</rdf:li>
            </rdf:Alt>
         </dc:title>
         <lr:hierarchicalSubject>
            <rdf:Bag>
               <rdf:li>Color[JW2]|2-Color</rdf:li>
               <rdf:li>Color[JW2]|Light Background</rdf:li>
               <rdf:li>General[JW1]|Cloud</rdf:li>
               <rdf:li>General[JW1]|Network</rdf:li>
               <rdf:li>Category names|Clouds</rdf:li>
            </rdf:Bag>
         </lr:hierarchicalSubject>
      </rdf:Description>
   </rdf:RDF>
</x:xmpmeta>
                                                                                                    
                                                                                                    
                                                                                                    
                                                                                                    
                                                                                                    
                                                                                                    
                                                                                                    
                                                                                                    
                                                                                                    
                          
<?xpacket end="w"?></metadata>
<g id="Template" style="&st0;">
	<g style="&st1;">
		<rect x="12.3" y="12.2" style="&st2;" width="5" height="5"/>
		<rect x="17.3" y="12.2" style="&st2;" width="5" height="5"/>
		<rect x="22.3" y="12.2" style="&st2;" width="5" height="5"/>
		<rect x="27.3" y="12.2" style="&st2;" width="5" height="5"/>
		<rect x="32.3" y="12.2" style="&st2;" width="5" height="5"/>
		<rect x="37.3" y="12.2" style="&st2;" width="5" height="5"/>
		<rect x="42.3" y="12.2" style="&st2;" width="5" height="5"/>
		<rect x="47.3" y="12.2" style="&st2;" width="5" height="5"/>
		<rect x="52.3" y="12.2" style="&st2;" width="5" height="5"/>
		<rect x="57.3" y="12.2" style="&st2;" width="5" height="5"/>
		<rect x="62.3" y="12.2" style="&st2;" width="5" height="5"/>
		<rect x="67.3" y="12.2" style="&st2;" width="5" height="5"/>
		<rect x="72.3" y="12.2" style="&st2;" width="5" height="5"/>
		<rect x="77.3" y="12.2" style="&st2;" width="5" height="5"/>
		<rect x="82.3" y="12.2" style="&st2;" width="5" height="5"/>
		<rect x="87.3" y="12.2" style="&st2;" width="5" height="5"/>
		<rect x="92.3" y="12.2" style="&st2;" width="5" height="5"/>
		<rect x="97.3" y="12.2" style="&st2;" width="5" height="5"/>
		<rect x="102.3" y="12.2" style="&st2;" width="5" height="5"/>
		<rect x="12.3" y="17.2" style="&st2;" width="5" height="5"/>
		<rect x="17.3" y="17.2" style="&st2;" width="5" height="5"/>
		<rect x="22.3" y="17.2" style="&st2;" width="5" height="5"/>
		<rect x="27.3" y="17.2" style="&st2;" width="5" height="5"/>
		<rect x="32.3" y="17.2" style="&st2;" width="5" height="5"/>
		<rect x="37.3" y="17.2" style="&st2;" width="5" height="5"/>
		<rect x="42.3" y="17.2" style="&st2;" width="5" height="5"/>
		<rect x="47.3" y="17.2" style="&st2;" width="5" height="5"/>
		<rect x="52.3" y="17.2" style="&st2;" width="5" height="5"/>
		<rect x="57.3" y="17.2" style="&st2;" width="5" height="5"/>
		<rect x="62.3" y="17.2" style="&st2;" width="5" height="5"/>
		<rect x="67.3" y="17.2" style="&st2;" width="5" height="5"/>
		<rect x="72.3" y="17.2" style="&st2;" width="5" height="5"/>
		<rect x="77.3" y="17.2" style="&st2;" width="5" height="5"/>
		<rect x="82.3" y="17.2" style="&st2;" width="5" height="5"/>
		<rect x="87.3" y="17.2" style="&st2;" width="5" height="5"/>
		<rect x="92.3" y="17.2" style="&st2;" width="5" height="5"/>
		<rect x="97.3" y="17.2" style="&st2;" width="5" height="5"/>
		<rect x="102.3" y="17.2" style="&st2;" width="5" height="5"/>
		<rect x="12.3" y="22.2" style="&st2;" width="5" height="5"/>
		<rect x="17.3" y="22.2" style="&st2;" width="5" height="5"/>
		<rect x="22.3" y="22.2" style="&st2;" width="5" height="5"/>
		<rect x="27.3" y="22.2" style="&st2;" width="5" height="5"/>
		<rect x="32.3" y="22.2" style="&st2;" width="5" height="5"/>
		<rect x="37.3" y="22.2" style="&st2;" width="5" height="5"/>
		<rect x="42.3" y="22.2" style="&st2;" width="5" height="5"/>
		<rect x="47.3" y="22.2" style="&st2;" width="5" height="5"/>
		<rect x="52.3" y="22.2" style="&st2;" width="5" height="5"/>
		<rect x="57.3" y="22.2" style="&st2;" width="5" height="5"/>
		<rect x="62.3" y="22.2" style="&st2;" width="5" height="5"/>
		<rect x="67.3" y="22.2" style="&st2;" width="5" height="5"/>
		<rect x="72.3" y="22.2" style="&st2;" width="5" height="5"/>
		<rect x="77.3" y="22.2" style="&st2;" width="5" height="5"/>
		<rect x="82.3" y="22.2" style="&st2;" width="5" height="5"/>
		<rect x="87.3" y="22.2" style="&st2;" width="5" height="5"/>
		<rect x="92.3" y="22.2" style="&st2;" width="5" height="5"/>
		<rect x="97.3" y="22.2" style="&st2;" width="5" height="5"/>
		<rect x="102.3" y="22.2" style="&st2;" width="5" height="5"/>
		<rect x="12.3" y="27.2" style="&st2;" width="5" height="5"/>
		<rect x="17.3" y="27.2" style="&st2;" width="5" height="5"/>
		<rect x="22.3" y="27.2" style="&st2;" width="5" height="5"/>
		<rect x="27.3" y="27.2" style="&st2;" width="5" height="5"/>
		<rect x="32.3" y="27.2" style="&st2;" width="5" height="5"/>
		<rect x="37.3" y="27.2" style="&st2;" width="5" height="5"/>
		<rect x="42.3" y="27.2" style="&st2;" width="5" height="5"/>
		<rect x="47.3" y="27.2" style="&st2;" width="5" height="5"/>
		<rect x="52.3" y="27.2" style="&st2;" width="5" height="5"/>
		<rect x="57.3" y="27.2" style="&st2;" width="5" height="5"/>
		<rect x="62.3" y="27.2" style="&st2;" width="5" height="5"/>
		<rect x="67.3" y="27.2" style="&st2;" width="5" height="5"/>
		<rect x="72.3" y="27.2" style="&st2;" width="5" height="5"/>
		<rect x="77.3" y="27.2" style="&st2;" width="5" height="5"/>
		<rect x="82.3" y="27.2" style="&st2;" width="5" height="5"/>
		<rect x="87.3" y="27.2" style="&st2;" width="5" height="5"/>
		<rect x="92.3" y="27.2" style="&st2;" width="5" height="5"/>
		<rect x="97.3" y="27.2" style="&st2;" width="5" height="5"/>
		<rect x="102.3" y="27.2" style="&st2;" width="5" height="5"/>
		<rect x="12.3" y="32.2" style="&st2;" width="5" height="5"/>
		<rect x="17.3" y="32.2" style="&st2;" width="5" height="5"/>
		<rect x="22.3" y="32.2" style="&st2;" width="5" height="5"/>
		<rect x="27.3" y="32.2" style="&st2;" width="5" height="5"/>
		<rect x="32.3" y="32.2" style="&st2;" width="5" height="5"/>
		<rect x="37.3" y="32.2" style="&st2;" width="5" height="5"/>
		<rect x="42.3" y="32.2" style="&st2;" width="5" height="5"/>
		<rect x="47.3" y="32.2" style="&st2;" width="5" height="5"/>
		<rect x="52.3" y="32.2" style="&st2;" width="5" height="5"/>
		<rect x="57.3" y="32.2" style="&st2;" width="5" height="5"/>
		<rect x="62.3" y="32.2" style="&st2;" width="5" height="5"/>
		<rect x="67.3" y="32.2" style="&st2;" width="5" height="5"/>
		<rect x="72.3" y="32.2" style="&st2;" width="5" height="5"/>
		<rect x="77.3" y="32.2" style="&st2;" width="5" height="5"/>
		<rect x="82.3" y="32.2" style="&st2;" width="5" height="5"/>
		<rect x="87.3" y="32.2" style="&st2;" width="5" height="5"/>
		<rect x="92.3" y="32.2" style="&st2;" width="5" height="5"/>
		<rect x="97.3" y="32.2" style="&st2;" width="5" height="5"/>
		<rect x="102.3" y="32.2" style="&st2;" width="5" height="5"/>
		<rect x="12.3" y="37.2" style="&st2;" width="5" height="5"/>
		<rect x="17.3" y="37.2" style="&st2;" width="5" height="5"/>
		<rect x="22.3" y="37.2" style="&st2;" width="5" height="5"/>
		<rect x="27.3" y="37.2" style="&st2;" width="5" height="5"/>
		<rect x="32.3" y="37.2" style="&st2;" width="5" height="5"/>
		<rect x="37.3" y="37.2" style="&st2;" width="5" height="5"/>
		<rect x="42.3" y="37.2" style="&st2;" width="5" height="5"/>
		<rect x="47.3" y="37.2" style="&st2;" width="5" height="5"/>
		<rect x="52.3" y="37.2" style="&st2;" width="5" height="5"/>
		<rect x="57.3" y="37.2" style="&st2;" width="5" height="5"/>
		<rect x="62.3" y="37.2" style="&st2;" width="5" height="5"/>
		<rect x="67.3" y="37.2" style="&st2;" width="5" height="5"/>
		<rect x="72.3" y="37.2" style="&st2;" width="5" height="5"/>
		<rect x="77.3" y="37.2" style="&st2;" width="5" height="5"/>
		<rect x="82.3" y="37.2" style="&st2;" width="5" height="5"/>
		<rect x="87.3" y="37.2" style="&st2;" width="5" height="5"/>
		<rect x="92.3" y="37.2" style="&st2;" width="5" height="5"/>
		<rect x="97.3" y="37.2" style="&st2;" width="5" height="5"/>
		<rect x="102.3" y="37.2" style="&st2;" width="5" height="5"/>
		<rect x="12.3" y="42.2" style="&st2;" width="5" height="5"/>
		<rect x="17.3" y="42.2" style="&st2;" width="5" height="5"/>
		<rect x="22.3" y="42.2" style="&st2;" width="5" height="5"/>
		<rect x="27.3" y="42.2" style="&st2;" width="5" height="5"/>
		<rect x="32.3" y="42.2" style="&st2;" width="5" height="5"/>
		<rect x="37.3" y="42.2" style="&st2;" width="5" height="5"/>
		<rect x="42.3" y="42.2" style="&st2;" width="5" height="5"/>
		<rect x="47.3" y="42.2" style="&st2;" width="5" height="5"/>
		<rect x="52.3" y="42.2" style="&st2;" width="5" height="5"/>
		<rect x="57.3" y="42.2" style="&st2;" width="5" height="5"/>
		<rect x="62.3" y="42.2" style="&st2;" width="5" height="5"/>
		<rect x="67.3" y="42.2" style="&st2;" width="5" height="5"/>
		<rect x="72.3" y="42.2" style="&st2;" width="5" height="5"/>
		<rect x="77.3" y="42.2" style="&st2;" width="5" height="5"/>
		<rect x="82.3" y="42.2" style="&st2;" width="5" height="5"/>
		<rect x="87.3" y="42.2" style="&st2;" width="5" height="5"/>
		<rect x="92.3" y="42.2" style="&st2;" width="5" height="5"/>
		<rect x="97.3" y="42.2" style="&st2;" width="5" height="5"/>
		<rect x="102.3" y="42.2" style="&st2;" width="5" height="5"/>
		<rect x="12.3" y="47.2" style="&st2;" width="5" height="5"/>
		<rect x="17.3" y="47.2" style="&st2;" width="5" height="5"/>
		<rect x="22.3" y="47.2" style="&st2;" width="5" height="5"/>
		<rect x="27.3" y="47.2" style="&st2;" width="5" height="5"/>
		<rect x="32.3" y="47.2" style="&st2;" width="5" height="5"/>
		<rect x="37.3" y="47.2" style="&st2;" width="5" height="5"/>
		<rect x="42.3" y="47.2" style="&st2;" width="5" height="5"/>
		<rect x="47.3" y="47.2" style="&st2;" width="5" height="5"/>
		<rect x="52.3" y="47.2" style="&st2;" width="5" height="5"/>
		<rect x="57.3" y="47.2" style="&st2;" width="5" height="5"/>
		<rect x="62.3" y="47.2" style="&st2;" width="5" height="5"/>
		<rect x="67.3" y="47.2" style="&st2;" width="5" height="5"/>
		<rect x="72.3" y="47.2" style="&st2;" width="5" height="5"/>
		<rect x="77.3" y="47.2" style="&st2;" width="5" height="5"/>
		<rect x="82.3" y="47.2" style="&st2;" width="5" height="5"/>
		<rect x="87.3" y="47.2" style="&st2;" width="5" height="5"/>
		<rect x="92.3" y="47.2" style="&st2;" width="5" height="5"/>
		<rect x="97.3" y="47.2" style="&st2;" width="5" height="5"/>
		<rect x="102.3" y="47.2" style="&st2;" width="5" height="5"/>
		<rect x="12.3" y="52.2" style="&st2;" width="5" height="5"/>
		<rect x="17.3" y="52.2" style="&st2;" width="5" height="5"/>
		<rect x="22.3" y="52.2" style="&st2;" width="5" height="5"/>
		<rect x="27.3" y="52.2" style="&st2;" width="5" height="5"/>
		<rect x="32.3" y="52.2" style="&st2;" width="5" height="5"/>
		<rect x="37.3" y="52.2" style="&st2;" width="5" height="5"/>
		<rect x="42.3" y="52.2" style="&st2;" width="5" height="5"/>
		<rect x="47.3" y="52.2" style="&st2;" width="5" height="5"/>
		<rect x="52.3" y="52.2" style="&st2;" width="5" height="5"/>
		<rect x="57.3" y="52.2" style="&st2;" width="5" height="5"/>
		<rect x="62.3" y="52.2" style="&st2;" width="5" height="5"/>
		<rect x="67.3" y="52.2" style="&st2;" width="5" height="5"/>
		<rect x="72.3" y="52.2" style="&st2;" width="5" height="5"/>
		<rect x="77.3" y="52.2" style="&st2;" width="5" height="5"/>
		<rect x="82.3" y="52.2" style="&st2;" width="5" height="5"/>
		<rect x="87.3" y="52.2" style="&st2;" width="5" height="5"/>
		<rect x="92.3" y="52.2" style="&st2;" width="5" height="5"/>
		<rect x="97.3" y="52.2" style="&st2;" width="5" height="5"/>
		<rect x="102.3" y="52.2" style="&st2;" width="5" height="5"/>
		<rect x="12.3" y="57.2" style="&st2;" width="5" height="5"/>
		<rect x="17.3" y="57.2" style="&st2;" width="5" height="5"/>
		<rect x="22.3" y="57.2" style="&st2;" width="5" height="5"/>
		<rect x="27.3" y="57.2" style="&st2;" width="5" height="5"/>
		<rect x="32.3" y="57.2" style="&st2;" width="5" height="5"/>
		<rect x="37.3" y="57.2" style="&st2;" width="5" height="5"/>
		<rect x="42.3" y="57.2" style="&st2;" width="5" height="5"/>
		<rect x="47.3" y="57.2" style="&st2;" width="5" height="5"/>
		<rect x="52.3" y="57.2" style="&st2;" width="5" height="5"/>
		<rect x="57.3" y="57.2" style="&st2;" width="5" height="5"/>
		<rect x="62.3" y="57.2" style="&st2;" width="5" height="5"/>
		<rect x="67.3" y="57.2" style="&st2;" width="5" height="5"/>
		<rect x="72.3" y="57.2" style="&st2;" width="5" height="5"/>
		<rect x="77.3" y="57.2" style="&st2;" width="5" height="5"/>
		<rect x="82.3" y="57.2" style="&st2;" width="5" height="5"/>
		<rect x="87.3" y="57.2" style="&st2;" width="5" height="5"/>
		<rect x="92.3" y="57.2" style="&st2;" width="5" height="5"/>
		<rect x="97.3" y="57.2" style="&st2;" width="5" height="5"/>
		<rect x="102.3" y="57.2" style="&st2;" width="5" height="5"/>
		<rect x="12.3" y="62.2" style="&st2;" width="5" height="5"/>
		<rect x="17.3" y="62.2" style="&st2;" width="5" height="5"/>
		<rect x="22.3" y="62.2" style="&st2;" width="5" height="5"/>
		<rect x="27.3" y="62.2" style="&st2;" width="5" height="5"/>
		<rect x="32.3" y="62.2" style="&st2;" width="5" height="5"/>
		<rect x="37.3" y="62.2" style="&st2;" width="5" height="5"/>
		<rect x="42.3" y="62.2" style="&st2;" width="5" height="5"/>
		<rect x="47.3" y="62.2" style="&st2;" width="5" height="5"/>
		<rect x="52.3" y="62.2" style="&st2;" width="5" height="5"/>
		<rect x="57.3" y="62.2" style="&st2;" width="5" height="5"/>
		<rect x="62.3" y="62.2" style="&st2;" width="5" height="5"/>
		<rect x="67.3" y="62.2" style="&st2;" width="5" height="5"/>
		<rect x="72.3" y="62.2" style="&st2;" width="5" height="5"/>
		<rect x="77.3" y="62.2" style="&st2;" width="5" height="5"/>
		<rect x="82.3" y="62.2" style="&st2;" width="5" height="5"/>
		<rect x="87.3" y="62.2" style="&st2;" width="5" height="5"/>
		<rect x="92.3" y="62.2" style="&st2;" width="5" height="5"/>
		<rect x="97.3" y="62.2" style="&st2;" width="5" height="5"/>
		<rect x="102.3" y="62.2" style="&st2;" width="5" height="5"/>
		<rect x="12.3" y="67.2" style="&st2;" width="5" height="5"/>
		<rect x="17.3" y="67.2" style="&st2;" width="5" height="5"/>
		<rect x="22.3" y="67.2" style="&st2;" width="5" height="5"/>
		<rect x="27.3" y="67.2" style="&st2;" width="5" height="5"/>
		<rect x="32.3" y="67.2" style="&st2;" width="5" height="5"/>
		<rect x="37.3" y="67.2" style="&st2;" width="5" height="5"/>
		<rect x="42.3" y="67.2" style="&st2;" width="5" height="5"/>
		<rect x="47.3" y="67.2" style="&st2;" width="5" height="5"/>
		<rect x="52.3" y="67.2" style="&st2;" width="5" height="5"/>
		<rect x="57.3" y="67.2" style="&st2;" width="5" height="5"/>
		<rect x="62.3" y="67.2" style="&st2;" width="5" height="5"/>
		<rect x="67.3" y="67.2" style="&st2;" width="5" height="5"/>
		<rect x="72.3" y="67.2" style="&st2;" width="5" height="5"/>
		<rect x="77.3" y="67.2" style="&st2;" width="5" height="5"/>
		<rect x="82.3" y="67.2" style="&st2;" width="5" height="5"/>
		<rect x="87.3" y="67.2" style="&st2;" width="5" height="5"/>
		<rect x="92.3" y="67.2" style="&st2;" width="5" height="5"/>
		<rect x="97.3" y="67.2" style="&st2;" width="5" height="5"/>
		<rect x="102.3" y="67.2" style="&st2;" width="5" height="5"/>
		<rect x="12.3" y="72.2" style="&st2;" width="5" height="5"/>
		<rect x="17.3" y="72.2" style="&st2;" width="5" height="5"/>
		<rect x="22.3" y="72.2" style="&st2;" width="5" height="5"/>
		<rect x="27.3" y="72.2" style="&st2;" width="5" height="5"/>
		<rect x="32.3" y="72.2" style="&st2;" width="5" height="5"/>
		<rect x="37.3" y="72.2" style="&st2;" width="5" height="5"/>
		<rect x="42.3" y="72.2" style="&st2;" width="5" height="5"/>
		<rect x="47.3" y="72.2" style="&st2;" width="5" height="5"/>
		<rect x="52.3" y="72.2" style="&st2;" width="5" height="5"/>
		<rect x="57.3" y="72.2" style="&st2;" width="5" height="5"/>
		<rect x="62.3" y="72.2" style="&st2;" width="5" height="5"/>
		<rect x="67.3" y="72.2" style="&st2;" width="5" height="5"/>
		<rect x="72.3" y="72.2" style="&st2;" width="5" height="5"/>
		<rect x="77.3" y="72.2" style="&st2;" width="5" height="5"/>
		<rect x="82.3" y="72.2" style="&st2;" width="5" height="5"/>
		<rect x="87.3" y="72.2" style="&st2;" width="5" height="5"/>
		<rect x="92.3" y="72.2" style="&st2;" width="5" height="5"/>
		<rect x="97.3" y="72.2" style="&st2;" width="5" height="5"/>
		<rect x="102.3" y="72.2" style="&st2;" width="5" height="5"/>
		<rect x="12.3" y="77.2" style="&st2;" width="5" height="5"/>
		<rect x="17.3" y="77.2" style="&st2;" width="5" height="5"/>
		<rect x="22.3" y="77.2" style="&st2;" width="5" height="5"/>
		<rect x="27.3" y="77.2" style="&st2;" width="5" height="5"/>
		<rect x="32.3" y="77.2" style="&st2;" width="5" height="5"/>
		<rect x="37.3" y="77.2" style="&st2;" width="5" height="5"/>
		<rect x="42.3" y="77.2" style="&st2;" width="5" height="5"/>
		<rect x="47.3" y="77.2" style="&st2;" width="5" height="5"/>
		<rect x="52.3" y="77.2" style="&st2;" width="5" height="5"/>
		<rect x="57.3" y="77.2" style="&st2;" width="5" height="5"/>
		<rect x="62.3" y="77.2" style="&st2;" width="5" height="5"/>
		<rect x="67.3" y="77.2" style="&st2;" width="5" height="5"/>
		<rect x="72.3" y="77.2" style="&st2;" width="5" height="5"/>
		<rect x="77.3" y="77.2" style="&st2;" width="5" height="5"/>
		<rect x="82.3" y="77.2" style="&st2;" width="5" height="5"/>
		<rect x="87.3" y="77.2" style="&st2;" width="5" height="5"/>
		<rect x="92.3" y="77.2" style="&st2;" width="5" height="5"/>
		<rect x="97.3" y="77.2" style="&st2;" width="5" height="5"/>
		<rect x="102.3" y="77.2" style="&st2;" width="5" height="5"/>
		<rect x="12.3" y="82.2" style="&st2;" width="5" height="5"/>
		<rect x="17.3" y="82.2" style="&st2;" width="5" height="5"/>
		<rect x="22.3" y="82.2" style="&st2;" width="5" height="5"/>
		<rect x="27.3" y="82.2" style="&st2;" width="5" height="5"/>
		<rect x="32.3" y="82.2" style="&st2;" width="5" height="5"/>
		<rect x="37.3" y="82.2" style="&st2;" width="5" height="5"/>
		<rect x="42.3" y="82.2" style="&st2;" width="5" height="5"/>
		<rect x="47.3" y="82.2" style="&st2;" width="5" height="5"/>
		<rect x="52.3" y="82.2" style="&st2;" width="5" height="5"/>
		<rect x="57.3" y="82.2" style="&st2;" width="5" height="5"/>
		<rect x="62.3" y="82.2" style="&st2;" width="5" height="5"/>
		<rect x="67.3" y="82.2" style="&st2;" width="5" height="5"/>
		<rect x="72.3" y="82.2" style="&st2;" width="5" height="5"/>
		<rect x="77.3" y="82.2" style="&st2;" width="5" height="5"/>
		<rect x="82.3" y="82.2" style="&st2;" width="5" height="5"/>
		<rect x="87.3" y="82.2" style="&st2;" width="5" height="5"/>
		<rect x="92.3" y="82.2" style="&st2;" width="5" height="5"/>
		<rect x="97.3" y="82.2" style="&st2;" width="5" height="5"/>
		<rect x="102.3" y="82.2" style="&st2;" width="5" height="5"/>
		<rect x="12.3" y="87.2" style="&st2;" width="5" height="5"/>
		<rect x="17.3" y="87.2" style="&st2;" width="5" height="5"/>
		<rect x="22.3" y="87.2" style="&st2;" width="5" height="5"/>
		<rect x="27.3" y="87.2" style="&st2;" width="5" height="5"/>
		<rect x="32.3" y="87.2" style="&st2;" width="5" height="5"/>
		<rect x="37.3" y="87.2" style="&st2;" width="5" height="5"/>
		<rect x="42.3" y="87.2" style="&st2;" width="5" height="5"/>
		<rect x="47.3" y="87.2" style="&st2;" width="5" height="5"/>
		<rect x="52.3" y="87.2" style="&st2;" width="5" height="5"/>
		<rect x="57.3" y="87.2" style="&st2;" width="5" height="5"/>
		<rect x="62.3" y="87.2" style="&st2;" width="5" height="5"/>
		<rect x="67.3" y="87.2" style="&st2;" width="5" height="5"/>
		<rect x="72.3" y="87.2" style="&st2;" width="5" height="5"/>
		<rect x="77.3" y="87.2" style="&st2;" width="5" height="5"/>
		<rect x="82.3" y="87.2" style="&st2;" width="5" height="5"/>
		<rect x="87.3" y="87.2" style="&st2;" width="5" height="5"/>
		<rect x="92.3" y="87.2" style="&st2;" width="5" height="5"/>
		<rect x="97.3" y="87.2" style="&st2;" width="5" height="5"/>
		<rect x="102.3" y="87.2" style="&st2;" width="5" height="5"/>
		<rect x="12.3" y="92.2" style="&st2;" width="5" height="5"/>
		<rect x="17.3" y="92.2" style="&st2;" width="5" height="5"/>
		<rect x="22.3" y="92.2" style="&st2;" width="5" height="5"/>
		<rect x="27.3" y="92.2" style="&st2;" width="5" height="5"/>
		<rect x="32.3" y="92.2" style="&st2;" width="5" height="5"/>
		<rect x="37.3" y="92.2" style="&st2;" width="5" height="5"/>
		<rect x="42.3" y="92.2" style="&st2;" width="5" height="5"/>
		<rect x="47.3" y="92.2" style="&st2;" width="5" height="5"/>
		<rect x="52.3" y="92.2" style="&st2;" width="5" height="5"/>
		<rect x="57.3" y="92.2" style="&st2;" width="5" height="5"/>
		<rect x="62.3" y="92.2" style="&st2;" width="5" height="5"/>
		<rect x="67.3" y="92.2" style="&st2;" width="5" height="5"/>
		<rect x="72.3" y="92.2" style="&st2;" width="5" height="5"/>
		<rect x="77.3" y="92.2" style="&st2;" width="5" height="5"/>
		<rect x="82.3" y="92.2" style="&st2;" width="5" height="5"/>
		<rect x="87.3" y="92.2" style="&st2;" width="5" height="5"/>
		<rect x="92.3" y="92.2" style="&st2;" width="5" height="5"/>
		<rect x="97.3" y="92.2" style="&st2;" width="5" height="5"/>
		<rect x="102.3" y="92.2" style="&st2;" width="5" height="5"/>
		<rect x="12.3" y="97.2" style="&st2;" width="5" height="5"/>
		<rect x="17.3" y="97.2" style="&st2;" width="5" height="5"/>
		<rect x="22.3" y="97.2" style="&st2;" width="5" height="5"/>
		<rect x="27.3" y="97.2" style="&st2;" width="5" height="5"/>
		<rect x="32.3" y="97.2" style="&st2;" width="5" height="5"/>
		<rect x="37.3" y="97.2" style="&st2;" width="5" height="5"/>
		<rect x="42.3" y="97.2" style="&st2;" width="5" height="5"/>
		<rect x="47.3" y="97.2" style="&st2;" width="5" height="5"/>
		<rect x="52.3" y="97.2" style="&st2;" width="5" height="5"/>
		<rect x="57.3" y="97.2" style="&st2;" width="5" height="5"/>
		<rect x="62.3" y="97.2" style="&st2;" width="5" height="5"/>
		<rect x="67.3" y="97.2" style="&st2;" width="5" height="5"/>
		<rect x="72.3" y="97.2" style="&st2;" width="5" height="5"/>
		<rect x="77.3" y="97.2" style="&st2;" width="5" height="5"/>
		<rect x="82.3" y="97.2" style="&st2;" width="5" height="5"/>
		<rect x="87.3" y="97.2" style="&st2;" width="5" height="5"/>
		<rect x="92.3" y="97.2" style="&st2;" width="5" height="5"/>
		<rect x="97.3" y="97.2" style="&st2;" width="5" height="5"/>
		<rect x="102.3" y="97.2" style="&st2;" width="5" height="5"/>
		<rect x="12.3" y="102.2" style="&st2;" width="5" height="5"/>
		<rect x="17.3" y="102.2" style="&st2;" width="5" height="5"/>
		<rect x="22.3" y="102.2" style="&st2;" width="5" height="5"/>
		<rect x="27.3" y="102.2" style="&st2;" width="5" height="5"/>
		<rect x="32.3" y="102.2" style="&st2;" width="5" height="5"/>
		<rect x="37.3" y="102.2" style="&st2;" width="5" height="5"/>
		<rect x="42.3" y="102.2" style="&st2;" width="5" height="5"/>
		<rect x="47.3" y="102.2" style="&st2;" width="5" height="5"/>
		<rect x="52.3" y="102.2" style="&st2;" width="5" height="5"/>
		<rect x="57.3" y="102.2" style="&st2;" width="5" height="5"/>
		<rect x="62.3" y="102.2" style="&st2;" width="5" height="5"/>
		<rect x="67.3" y="102.2" style="&st2;" width="5" height="5"/>
		<rect x="72.3" y="102.2" style="&st2;" width="5" height="5"/>
		<rect x="77.3" y="102.2" style="&st2;" width="5" height="5"/>
		<rect x="82.3" y="102.2" style="&st2;" width="5" height="5"/>
		<rect x="87.3" y="102.2" style="&st2;" width="5" height="5"/>
		<rect x="92.3" y="102.2" style="&st2;" width="5" height="5"/>
		<rect x="97.3" y="102.2" style="&st2;" width="5" height="5"/>
		<rect x="102.3" y="102.2" style="&st2;" width="5" height="5"/>
	</g>
</g>
<g id="Cloud_Network_2color-light_bk">
	<g>
		<path style="&st3;" d="M15.2,25c1.7,0.4,3.4-0.2,4.5-1.4L33,30.9v12.9c0.8-0.7,1.6-1.3,2.5-1.9V29.4l-14.6-8
			c0.5-2.5-1-4.9-3.5-5.5c-2.5-0.6-5,0.9-5.6,3.5S12.7,24.4,15.2,25z"/>
		<path style="&st3;" d="M52.4,20.5c0,0,0.1,0,0.1,0l0.7,17.9c0.7-1.2,1.5-2.3,2.4-3.4L55,20.4c1.4-0.5,2.6-1.7,3-3.3
			c0.6-2.5-0.9-5-3.5-5.6c-2.5-0.6-5,0.9-5.6,3.5C48.4,17.4,49.9,19.9,52.4,20.5z"/>
		<path style="&st3;" d="M98.6,96.8c-0.6-0.3-1.3-0.5-2-0.5l-3.4-10.5c-0.4,0-0.8,0.1-1.2,0.1c0,0-0.3,0-0.4,0c-0.1,0-0.5,0-1,0
			l3.5,11c-0.8,0.4-1.4,1.1-1.9,1.9c-1.2,2.3-0.3,5.1,2,6.3s5.1,0.3,6.3-2S100.9,98,98.6,96.8z"/>
		<path style="&st3;" d="M61.7,93.6l0-7.6c-0.8,0-1.6,0-2.4,0c0,0,0,0-0.1,0l0,7.6c-1.6,0.4-2.9,1.7-3.3,3.4c-0.6,2.5,0.9,5,3.5,5.6
			c2.5,0.6,5-0.9,5.6-3.5C65.6,96.7,64.1,94.2,61.7,93.6z"/>
		<path style="&st3;" d="M27.6,86.1c-0.6,0-1.1,0-1.4,0l-7.8,7.8c-0.6-0.3-1.3-0.5-2.1-0.5c-2.6,0-4.7,2.1-4.7,4.7
			c0,2.6,2.1,4.7,4.7,4.7c2.6,0,4.7-2.1,4.7-4.7c0-0.9-0.3-1.7-0.7-2.5l9.5-9.5C28.9,86.1,28.2,86.1,27.6,86.1z"/>
		<path style="&st3;" d="M78.1,22.2h16.2c0.5,1.5,1.7,2.7,3.3,3c2.5,0.6,5-0.9,5.6-3.5c0.6-2.5-0.9-5-3.5-5.6
			c-2.5-0.6-5,0.9-5.6,3.5c0,0,0,0.1,0,0.1H75.6v7.1c0.8,0.1,1.7,0.3,2.5,0.5V22.2z"/>
		<path style="&st4;" d="M91.8,83.4c7.8,0,14.3-7.4,14.5-16.6c0.2-9-5.6-16.5-13.2-17.2c-1-11.3-9.5-20.1-20-20.4
			c-0.2,0-0.3,0-0.5,0c-8.5,0-15.9,5.7-19,13.9c-2.2-1-4.6-1.6-7.1-1.7c-0.1,0-0.3,0-0.4,0c-8.4,0-15.4,5.9-17.1,14
			c-1.1-0.3-2.3-0.5-3.4-0.5c-0.1,0-0.2,0-0.3,0c-7.5,0-13.8,6.1-13.9,13.7c-0.2,7.7,6.9,14.8,14.6,15c0.2,0,0.8,0,1.6,0
			c9.3,0,53.3-0.2,62.5-0.2c0.9,0,1.4,0,1.6,0C91.6,83.4,91.7,83.4,91.8,83.4z M58.7,81c-13.1,0-26.7,0.1-31.4,0.1
			c-0.9,0-1.4,0-1.6,0c-6.4-0.2-12.3-6.2-12.1-12.5c0.1-6.2,5.3-11.2,11.4-11.2c0.1,0,0.2,0,0.3,0c1,0,1.9,0.2,2.8,0.4l2.6,0.7
			l0.6-2.6c1.5-7,7.7-12,14.7-12c0.1,0,0.2,0,0.4,0c2.2,0.1,4.2,0.5,6.1,1.5l2.4,1.2l1-2.5c2.9-7.5,9.5-12.3,16.7-12.3
			c0.1,0,0.3,0,0.4,0c9.1,0.2,16.7,8,17.6,18.1l0.2,2.1l2.1,0.2c6.3,0.6,11.1,7.1,10.9,14.7c-0.2,7.8-5.6,14.1-12,14.1
			c-0.1,0-0.2,0-0.3,0c-0.2,0-0.8,0-1.7,0C85.3,80.9,71.8,80.9,58.7,81z"/>
	</g>
</g>
</svg>
